<mxfile host="app.diagrams.net" modified="2024-05-28T11:59:48.692Z" agent="Mozilla/5.0 (Windows NT 10.0; Win64; x64) AppleWebKit/537.36 (KHTML, like Gecko) Chrome/125.0.0.0 Safari/537.36" etag="sGsKpKXgeLRKRta0XeZ_" version="24.4.9" type="device">
  <diagram name="Page-1" id="PFZIlPAZRZWuNY0DRvPU">
    <mxGraphModel dx="1434" dy="780" grid="1" gridSize="10" guides="1" tooltips="1" connect="1" arrows="1" fold="1" page="1" pageScale="1" pageWidth="850" pageHeight="1100" math="0" shadow="0">
      <root>
        <mxCell id="0" />
        <mxCell id="1" parent="0" />
        <mxCell id="pTnk2QGazv7gYI0ECCPM-1" value="" style="rounded=0;whiteSpace=wrap;html=1;" vertex="1" parent="1">
          <mxGeometry x="40" y="110" width="40" height="20" as="geometry" />
        </mxCell>
        <mxCell id="pTnk2QGazv7gYI0ECCPM-4" value="UTVRDITI VRSTU VOZILA" style="rounded=0;whiteSpace=wrap;html=1;" vertex="1" parent="1">
          <mxGeometry x="370" y="80" width="160" height="80" as="geometry" />
        </mxCell>
        <mxCell id="pTnk2QGazv7gYI0ECCPM-5" value="" style="endArrow=none;html=1;rounded=0;exitX=0;exitY=0.25;exitDx=0;exitDy=0;entryX=1;entryY=0.25;entryDx=0;entryDy=0;" edge="1" parent="1" source="pTnk2QGazv7gYI0ECCPM-4" target="pTnk2QGazv7gYI0ECCPM-4">
          <mxGeometry width="50" height="50" relative="1" as="geometry">
            <mxPoint x="410" y="140" as="sourcePoint" />
            <mxPoint x="460" y="90" as="targetPoint" />
          </mxGeometry>
        </mxCell>
        <mxCell id="pTnk2QGazv7gYI0ECCPM-8" value="UNOS OPÄ†IH PODATAKA" style="rounded=0;whiteSpace=wrap;html=1;" vertex="1" parent="1">
          <mxGeometry x="370" y="320" width="160" height="80" as="geometry" />
        </mxCell>
        <mxCell id="pTnk2QGazv7gYI0ECCPM-9" value="" style="endArrow=none;html=1;rounded=0;exitX=0;exitY=0.25;exitDx=0;exitDy=0;entryX=1;entryY=0.25;entryDx=0;entryDy=0;" edge="1" parent="1" source="pTnk2QGazv7gYI0ECCPM-8" target="pTnk2QGazv7gYI0ECCPM-8">
          <mxGeometry width="50" height="50" relative="1" as="geometry">
            <mxPoint x="430" y="160" as="sourcePoint" />
            <mxPoint x="480" y="110" as="targetPoint" />
          </mxGeometry>
        </mxCell>
        <mxCell id="pTnk2QGazv7gYI0ECCPM-10" value="SPREMANJE U BAZU" style="rounded=0;whiteSpace=wrap;html=1;" vertex="1" parent="1">
          <mxGeometry x="370" y="560" width="160" height="80" as="geometry" />
        </mxCell>
        <mxCell id="pTnk2QGazv7gYI0ECCPM-11" value="" style="endArrow=none;html=1;rounded=0;exitX=0;exitY=0.25;exitDx=0;exitDy=0;entryX=1;entryY=0.25;entryDx=0;entryDy=0;" edge="1" parent="1" source="pTnk2QGazv7gYI0ECCPM-10" target="pTnk2QGazv7gYI0ECCPM-10">
          <mxGeometry width="50" height="50" relative="1" as="geometry">
            <mxPoint x="370" y="710" as="sourcePoint" />
            <mxPoint x="420" y="660" as="targetPoint" />
          </mxGeometry>
        </mxCell>
        <mxCell id="pTnk2QGazv7gYI0ECCPM-12" value="" style="endArrow=classic;html=1;rounded=0;exitX=1;exitY=0.5;exitDx=0;exitDy=0;entryX=0;entryY=0.5;entryDx=0;entryDy=0;" edge="1" parent="1" source="pTnk2QGazv7gYI0ECCPM-1" target="pTnk2QGazv7gYI0ECCPM-4">
          <mxGeometry relative="1" as="geometry">
            <mxPoint x="370" y="220" as="sourcePoint" />
            <mxPoint x="470" y="220" as="targetPoint" />
          </mxGeometry>
        </mxCell>
        <mxCell id="pTnk2QGazv7gYI0ECCPM-13" value="ZAHTJEV ZA KREACIJU NOVOG ARTIKLA" style="edgeLabel;resizable=0;html=1;;align=center;verticalAlign=middle;" connectable="0" vertex="1" parent="pTnk2QGazv7gYI0ECCPM-12">
          <mxGeometry relative="1" as="geometry" />
        </mxCell>
        <mxCell id="pTnk2QGazv7gYI0ECCPM-14" value="P1.1" style="text;html=1;align=center;verticalAlign=middle;resizable=0;points=[];autosize=1;strokeColor=none;fillColor=none;" vertex="1" parent="1">
          <mxGeometry x="425" y="80" width="50" height="30" as="geometry" />
        </mxCell>
        <mxCell id="pTnk2QGazv7gYI0ECCPM-15" value="P1.2" style="text;html=1;align=center;verticalAlign=middle;resizable=0;points=[];autosize=1;strokeColor=none;fillColor=none;" vertex="1" parent="1">
          <mxGeometry x="425" y="320" width="50" height="30" as="geometry" />
        </mxCell>
        <mxCell id="pTnk2QGazv7gYI0ECCPM-16" value="P1.3" style="text;html=1;align=center;verticalAlign=middle;resizable=0;points=[];autosize=1;strokeColor=none;fillColor=none;" vertex="1" parent="1">
          <mxGeometry x="425" y="560" width="50" height="30" as="geometry" />
        </mxCell>
        <mxCell id="pTnk2QGazv7gYI0ECCPM-18" value="" style="endArrow=classic;html=1;rounded=0;exitX=0.5;exitY=1;exitDx=0;exitDy=0;entryX=0.5;entryY=0;entryDx=0;entryDy=0;" edge="1" parent="1" source="pTnk2QGazv7gYI0ECCPM-4" target="pTnk2QGazv7gYI0ECCPM-8">
          <mxGeometry relative="1" as="geometry">
            <mxPoint x="90" y="130" as="sourcePoint" />
            <mxPoint x="470" y="290" as="targetPoint" />
          </mxGeometry>
        </mxCell>
        <mxCell id="pTnk2QGazv7gYI0ECCPM-19" value="VRSTA VOZILA" style="edgeLabel;resizable=0;html=1;;align=center;verticalAlign=middle;" connectable="0" vertex="1" parent="pTnk2QGazv7gYI0ECCPM-18">
          <mxGeometry relative="1" as="geometry" />
        </mxCell>
        <mxCell id="pTnk2QGazv7gYI0ECCPM-21" value="" style="endArrow=classic;html=1;rounded=0;exitX=0.5;exitY=1;exitDx=0;exitDy=0;entryX=0.5;entryY=0;entryDx=0;entryDy=0;" edge="1" parent="1" source="pTnk2QGazv7gYI0ECCPM-8" target="pTnk2QGazv7gYI0ECCPM-10">
          <mxGeometry relative="1" as="geometry">
            <mxPoint x="100" y="140" as="sourcePoint" />
            <mxPoint x="390" y="140" as="targetPoint" />
          </mxGeometry>
        </mxCell>
        <mxCell id="pTnk2QGazv7gYI0ECCPM-22" value="SPREMI ARTIKAL U BAZU" style="edgeLabel;resizable=0;html=1;;align=center;verticalAlign=middle;" connectable="0" vertex="1" parent="pTnk2QGazv7gYI0ECCPM-21">
          <mxGeometry relative="1" as="geometry" />
        </mxCell>
        <mxCell id="pTnk2QGazv7gYI0ECCPM-25" value="" style="endArrow=classic;html=1;rounded=0;exitX=0.5;exitY=1;exitDx=0;exitDy=0;" edge="1" parent="1" source="pTnk2QGazv7gYI0ECCPM-10">
          <mxGeometry relative="1" as="geometry">
            <mxPoint x="110" y="150" as="sourcePoint" />
            <mxPoint x="450" y="760" as="targetPoint" />
          </mxGeometry>
        </mxCell>
        <mxCell id="pTnk2QGazv7gYI0ECCPM-26" value="REZULTATI" style="edgeLabel;resizable=0;html=1;;align=center;verticalAlign=middle;" connectable="0" vertex="1" parent="pTnk2QGazv7gYI0ECCPM-25">
          <mxGeometry relative="1" as="geometry" />
        </mxCell>
        <mxCell id="pTnk2QGazv7gYI0ECCPM-27" value="" style="rounded=0;whiteSpace=wrap;html=1;" vertex="1" parent="1">
          <mxGeometry x="430" y="760" width="40" height="20" as="geometry" />
        </mxCell>
      </root>
    </mxGraphModel>
  </diagram>
</mxfile>
